# xmcd CD database file
#
# Track frame offsets:
#	150
#	12055
#	24116
#	39334
#	51991
#	67633
#	81045
#	96210
#	111304
#	127053
#	138794
#	154700
#	171968
#
# Disc length: 2539 seconds
#
# Revision: 0
# Processed by: cddbd v1.5.2PL0 Copyright (c) Steve Scherf et al.
# Submitted via: CDex 1.77
#
DISCID=9809e90d
DTITLE=Frank and Woody Show - Damn The Luck
DYEAR=1978
DGENRE=Country
TTITLE0=Nothin' To Do
TTITLE1=Twenty Miles
TTITLE2=Small Talkin'
TTITLE3=All Or Nothin' Man
TTITLE4=Big Trouble
TTITLE5=Rearrangin'
TTITLE6=The Girls
TTITLE7=Really Likes To Travel
TTITLE8=Rodeo
TTITLE9=Wishin' And Hopin'
TTITLE10=Fancy Dancin'
TTITLE11=All This Love
TTITLE12=Damn The Luck
EXTD=YEAR: 1978
EXTT0=
EXTT1=
EXTT2=
EXTT3=
EXTT4=
EXTT5=
EXTT6=
EXTT7=
EXTT8=
EXTT9=
EXTT10=
EXTT11=
EXTT12=
PLAYORDER=
